<?xml version="1.0" standalone="no"?>
<!DOCTYPE svg PUBLIC "-//W3C//DTD SVG 20010904//EN"
 "http://www.w3.org/TR/2001/REC-SVG-20010904/DTD/svg10.dtd">
<svg version="1.0" xmlns="http://www.w3.org/2000/svg"
 width="500.000000pt" height="500.000000pt" viewBox="0 0 500.000000 500.000000"
 preserveAspectRatio="xMidYMid meet">

<g transform="translate(0.000000,500.000000) scale(0.100000,-0.100000)"
fill="#000000" stroke="none">
<path d="M1866 3213 c-88 -234 -586 -1574 -586 -1578 0 -3 76 -5 169 -5 152 0
170 2 176 18 22 56 598 1600 602 1615 5 16 -8 17 -165 17 l-170 0 -26 -67z
m333 20 c-6 -16 -141 -376 -300 -802 -158 -425 -290 -775 -292 -778 -2 -2 -71
-2 -153 -1 l-149 3 299 803 299 802 153 0 154 0 -11 -27z"/>
<path d="M632 2802 l-552 -277 0 -90 0 -90 556 -245 c305 -135 560 -246 565
-248 5 -2 9 58 9 146 l0 150 -182 75 c-101 41 -263 108 -360 147 -98 40 -176
76 -174 79 3 4 165 81 360 171 l356 164 0 148 c0 112 -3 148 -12 147 -7 0
-262 -125 -566 -277z m558 126 l0 -133 -353 -163 c-193 -90 -362 -169 -374
-175 -19 -11 19 -29 353 -166 l374 -153 0 -130 c0 -120 -1 -130 -17 -124 -10
4 -255 111 -545 239 l-528 232 0 80 0 80 543 272 c298 150 543 272 545 272 1
1 2 -59 2 -131z"/>
<path d="M2533 3066 c-136 -44 -227 -162 -255 -331 -26 -155 70 -341 289 -562
110 -111 273 -255 352 -311 l43 -32 45 33 c98 70 386 369 481 499 182 249 187
461 15 618 -65 60 -125 80 -232 80 -126 -1 -219 -62 -276 -179 -16 -34 -31
-61 -34 -61 -3 0 -19 26 -36 57 -41 79 -90 127 -166 163 -77 36 -165 46 -226
26z m198 -37 c81 -31 105 -54 161 -150 34 -58 58 -89 67 -87 9 2 29 32 46 66
34 71 89 132 144 159 52 26 221 26 274 -1 56 -28 127 -103 156 -166 22 -47 26
-68 25 -145 0 -110 -23 -172 -113 -302 -103 -151 -400 -461 -495 -517 l-32
-19 -55 35 c-75 48 -171 132 -311 274 -141 142 -195 212 -248 319 -57 114 -67
176 -45 267 9 40 26 91 36 114 28 59 106 131 175 160 69 29 130 27 215 -7z"/>
<path d="M3790 2911 l0 -148 298 -138 c163 -76 326 -152 362 -168 l64 -29 -34
-15 c-19 -8 -161 -66 -315 -130 -154 -63 -301 -124 -327 -135 l-48 -20 0 -150
c0 -116 3 -149 13 -145 6 3 253 112 547 242 294 130 541 239 548 242 8 4 12
33 12 97 l0 91 -555 278 c-305 152 -557 277 -560 277 -3 0 -5 -67 -5 -149z
m570 -151 l540 -270 0 -75 c0 -71 -1 -75 -27 -89 -55 -28 -1054 -466 -1063
-466 -6 0 -10 52 -10 125 l0 124 28 15 c15 7 184 78 375 156 192 79 345 146
340 150 -4 4 -168 80 -363 170 -195 90 -361 168 -367 173 -16 12 -19 257 -3
257 6 0 253 -122 550 -270z"/>
</g>
</svg>
